<svg id="レイヤー_1" data-name="レイヤー 1" xmlns="http://www.w3.org/2000/svg" viewBox="0 0 224.6 69.67"><defs><style>.cls-1{fill:#231815;}.cls-2{fill:#956f29;}</style></defs><title>名称未設定-5</title><path class="cls-1" d="M343.36,433.39a.11.11,0,0,0-.1.08l-.59,1.75a2.06,2.06,0,0,0-.14.66c0,.2.19.29.36.29H343c.1,0,.13,0,.13.06s-.09.08-.17.08l-.75,0c-.1,0-.65,0-1.11,0-.13,0-.19,0-.19-.08s.05-.06.14-.06l.24,0c.45-.06.65-.44.83-.93l2.24-6.13c.12-.33.16-.39.21-.39s.1.05.22.36,1.7,4.45,2.3,5.95c.36.88.64,1,.85,1.1a1.32,1.32,0,0,0,.39.06c.06,0,.11,0,.11.06s-.09.08-.2.08-.87,0-1.55,0c-.19,0-.3,0-.3-.07s0-.06.07-.07.12-.11.06-.27l-.92-2.43a.09.09,0,0,0-.09-.06Zm2-.35s0,0,0-.07l-.93-2.67q-.07-.23-.15,0l-.87,2.67s0,.07,0,.07Z" transform="translate(-223.7 -367.17)"/><path class="cls-1" d="M353.64,436.2c-.13-.06-.13-.1-.13-.34,0-.45,0-.79,0-.93s0-.13.08-.13.07,0,.07.09a1.24,1.24,0,0,0,0,.3,1.19,1.19,0,0,0,1.28.89,1.11,1.11,0,0,0,1.22-1.06c0-.56-.26-.91-1-1.49l-.39-.31c-.95-.75-1.15-1.28-1.15-1.86,0-.91.72-1.52,1.83-1.52a3.46,3.46,0,0,1,.8.08,1.51,1.51,0,0,0,.33.05c.07,0,.09,0,.09.06s0,.38,0,1c0,.15,0,.21-.07.21s-.06,0-.07-.11a1.48,1.48,0,0,0-.11-.46c-.05-.09-.28-.47-1.11-.47a1,1,0,0,0-1,1c0,.47.24.75,1.06,1.37l.23.18c1,.79,1.29,1.32,1.29,2a1.75,1.75,0,0,1-.75,1.4,2.45,2.45,0,0,1-1.33.34,2.94,2.94,0,0,1-1.18-.21" transform="translate(-223.7 -367.17)"/><path class="cls-1" d="M363.54,436.2c-.13-.06-.13-.1-.13-.34,0-.45,0-.79,0-.93s0-.13.08-.13.07,0,.07.09a1.24,1.24,0,0,0,0,.3,1.19,1.19,0,0,0,1.29.89,1.11,1.11,0,0,0,1.21-1.06c0-.56-.26-.91-1-1.49l-.39-.31c-.95-.75-1.15-1.28-1.15-1.86,0-.91.72-1.52,1.83-1.52a3.46,3.46,0,0,1,.8.08,1.59,1.59,0,0,0,.33.05c.07,0,.09,0,.09.06s0,.38,0,1c0,.15,0,.21-.07.21s-.06,0-.07-.11a1.07,1.07,0,0,0-.11-.46c-.05-.09-.28-.47-1.11-.47a1,1,0,0,0-1,1c0,.47.24.75,1.06,1.37l.23.18c1,.79,1.29,1.32,1.29,2a1.75,1.75,0,0,1-.75,1.4,2.42,2.42,0,0,1-1.33.34,2.94,2.94,0,0,1-1.18-.21" transform="translate(-223.7 -367.17)"/><path class="cls-1" d="M372.85,433.12a3.32,3.32,0,0,1,3.45-3.28,3.13,3.13,0,0,1,3.45,3.15,3.36,3.36,0,0,1-3.5,3.42,3.2,3.2,0,0,1-3.4-3.29m6,.11c0-2-1.23-3.09-2.58-3.09a2.4,2.4,0,0,0-2.48,2.72c0,1.94,1.08,3.22,2.74,3.22.66,0,2.32-.34,2.32-2.85" transform="translate(-223.7 -367.17)"/><path class="cls-1" d="M386.05,435.52A3.22,3.22,0,0,1,385,433a3.31,3.31,0,0,1,1-2.28,3.57,3.57,0,0,1,2.66-.88,8.45,8.45,0,0,1,1.3.11,8.61,8.61,0,0,0,.87.11c.08,0,.09.05.09.1s0,.16-.05.48,0,.79,0,.91,0,.18-.08.18-.08-.05-.08-.18a1.18,1.18,0,0,0-.38-.86,2.93,2.93,0,0,0-1.75-.51,2.6,2.6,0,0,0-1.9.58,2.65,2.65,0,0,0-.79,2.16,3.09,3.09,0,0,0,3.07,3.08,2.07,2.07,0,0,0,1.51-.4,1.37,1.37,0,0,0,.33-.72c0-.09.05-.14.11-.14s.05.07.05.13a9.42,9.42,0,0,1-.2,1.1.33.33,0,0,1-.23.25,4.68,4.68,0,0,1-1.56.19,4.17,4.17,0,0,1-2.89-.89" transform="translate(-223.7 -367.17)"/><path class="cls-1" d="M396.94,432.39c0-1.31,0-1.54,0-1.81s-.08-.42-.28-.46l-.23,0c-.07,0-.11,0-.11-.07s0-.07.15-.07c.31,0,.87,0,.9,0l.89,0c.1,0,.14,0,.14.07s0,.06-.1.07l-.18,0c-.29,0-.32.18-.34.47s0,.49,0,1.8v1.48a17.77,17.77,0,0,0,0,1.8c0,.29.08.4.34.46a2.21,2.21,0,0,0,.37,0c.09,0,.11,0,.11.07s0,.07-.14.07c-.5,0-1.07,0-1.12,0l-.89,0c-.09,0-.16,0-.16-.07s0-.07.13-.07a1.2,1.2,0,0,0,.24,0c.16,0,.19-.24.22-.48a17.11,17.11,0,0,0,.05-1.79Z" transform="translate(-223.7 -367.17)"/><path class="cls-1" d="M405.21,433.9a.11.11,0,0,0-.1.08l-.43,1.23a2.47,2.47,0,0,0-.17.7c0,.18.11.26.32.26h.07c.09,0,.12,0,.12.07s-.08.07-.15.07l-.78,0c-.1,0-.53,0-.94,0-.11,0-.16,0-.16-.07s0-.07.12-.07h.19c.43,0,.6-.37.76-.78l2-5.21c.11-.28.14-.33.21-.33s.08,0,.19.32,1.48,3.77,2,5c.32.78.61.91.75,1a.91.91,0,0,0,.33.05c.07,0,.12,0,.12.07s0,.07-.15.07-.83,0-1.5,0c-.18,0-.24,0-.24-.07a.08.08,0,0,1,.07-.07s.09-.07,0-.22l-.78-2a.09.09,0,0,0-.08-.05Zm1.68-.35s0,0,0-.06l-.78-2.18c-.05-.14-.06-.14-.11,0l-.74,2.18s0,.06,0,.06Z" transform="translate(-223.7 -367.17)"/><path class="cls-1" d="M415.94,433.87c0,.76,0,1.46.05,1.82s.05.38.3.44a2,2,0,0,0,.38,0c.08,0,.12,0,.12.06s0,.08-.13.08c-.5,0-1.08,0-1.12,0l-.88,0c-.11,0-.15,0-.15-.07s0-.07.11-.07h.22c.19,0,.21-.15.25-.49s0-1.06,0-1.8v-3.53h-1.24c-.63,0-.77.11-.91.32a1.58,1.58,0,0,0-.15.3c0,.07-.05.08-.09.08s-.05,0-.05-.09.14-.71.2-1,.06-.16.09-.16.26.09.44.11c.34,0,.62.05.63.05h3.24a4.25,4.25,0,0,0,.71-.05l.19,0s.05.05.05.09c0,.27,0,.92,0,1s0,.12-.06.12-.07,0-.07-.12a1.13,1.13,0,0,0,0-.14c0-.39-.17-.49-1.17-.5h-1Z" transform="translate(-223.7 -367.17)"/><path class="cls-1" d="M423.82,432.39c0-1.31,0-1.54,0-1.81s-.08-.42-.29-.46l-.23,0c-.07,0-.11,0-.11-.07s0-.07.15-.07c.31,0,.87,0,.9,0l.89,0c.1,0,.15,0,.15.07s0,.06-.11.07l-.18,0c-.28,0-.31.18-.33.47s0,.49,0,1.8v1.48a17.77,17.77,0,0,0,0,1.8c0,.29.07.4.33.46a2.31,2.31,0,0,0,.38,0c.09,0,.1,0,.1.07s0,.07-.13.07c-.51,0-1.08,0-1.13,0l-.89,0c-.09,0-.16,0-.16-.07s0-.07.13-.07a1.2,1.2,0,0,0,.24,0c.17,0,.2-.24.23-.48a17.11,17.11,0,0,0,.05-1.79Z" transform="translate(-223.7 -367.17)"/><path class="cls-1" d="M430.45,433.12a3.33,3.33,0,0,1,3.46-3.28,3.13,3.13,0,0,1,3.44,3.15,3.36,3.36,0,0,1-3.49,3.42,3.21,3.21,0,0,1-3.41-3.29m6,.11c0-2-1.23-3.09-2.58-3.09a2.4,2.4,0,0,0-2.48,2.72c0,1.94,1.08,3.22,2.74,3.22.66,0,2.32-.34,2.32-2.85" transform="translate(-223.7 -367.17)"/><path class="cls-1" d="M441.94,430.24c0-.3,0-.4.11-.4s.23.2.3.26,1.46,1.51,2.85,2.92c.77.75,1.76,1.77,2,2l-.11-4.11c0-.53-.07-.71-.33-.78a2.21,2.21,0,0,0-.39,0c-.1,0-.12,0-.12-.08s.08-.06.18-.06c.43,0,.84,0,.93,0s.4,0,.79,0c.11,0,.14,0,.14.06s0,.07-.09.08a1.29,1.29,0,0,0-.25,0c-.22.05-.29.15-.29.75l0,4.95c0,.5,0,.54-.09.54s-.17-.06-.65-.52c0,0-1.42-1.38-2.28-2.22l-2.26-2.35.13,3.86c0,.68.08.94.33,1a1.66,1.66,0,0,0,.4,0c.08,0,.12,0,.12.07s-.05.07-.16.07c-.53,0-.89,0-.95,0s-.44,0-.86,0c-.09,0-.15,0-.15-.07s0-.07.14-.07a1,1,0,0,0,.3,0c.22-.07.27-.34.27-1.06,0-4.71,0-3.19,0-4.83" transform="translate(-223.7 -367.17)"/><path class="cls-1" d="M358.44,385.19c.1,1.25.21,2,1,2.3a4.17,4.17,0,0,0,1.26.15c.17,0,.23,0,.23.1s-.06.13-.27.13c-.54,0-2.43,0-3.17-.13-.36,0-.44-.08-.44-.14s.06-.09.15-.13.14-.29.1-.7l-.89-12.06-5.61,12.2c-.37.77-.41.9-.56.9s-.16-.13-.41-.63c-1-2-2.37-5-2.47-5.19-.27-.6-2.95-6.51-3.26-7.24l-.83,10.88c0,.31,0,.74,0,1.05,0,.59.19.81.58.9a4,4,0,0,0,.77.06c.12,0,.21,0,.21.1s-.09.13-.27.13c-.71,0-1.64-.06-1.85-.06s-1.12.06-1.62.06c-.21,0-.31,0-.31-.13s.08-.1.21-.1a3.76,3.76,0,0,0,.6,0c.58-.11.68-.58.83-1.93l1.24-13.47c0-.21.09-.33.17-.33s.17.1.27.31l6.43,13.76,6.33-13.78c.06-.15.15-.27.25-.27s.15.16.19.54Z" transform="translate(-223.7 -367.17)"/><path class="cls-1" d="M367.71,381.39c-.08,0-.12.05-.16.15l-1.35,4a5.51,5.51,0,0,0-.35,1.51c0,.35.24.52.58.54h.31c.21,0,.25,0,.25.1s-.11.13-.29.13c-.48,0-1.27-.06-1.48-.06s-1,.06-2,.06c-.23,0-.33,0-.33-.13s.08-.1.27-.1a2.33,2.33,0,0,0,.5,0c.79-.13,1.12-.67,1.58-2l4.66-13c.23-.62.3-.72.4-.72s.14.1.37.68,3.66,9.42,5,12.89c.65,1.62,1,2,1.75,2.12a2.79,2.79,0,0,0,.64.06c.15,0,.23,0,.23.1s-.13.13-.31.13c-.5,0-1.89,0-2.89-.06-.27,0-.39,0-.39-.11s0-.08.14-.1.25-.27.15-.54l-2.12-5.54c0-.08-.06-.13-.14-.13Zm4.86-.6c.06,0,.08-.06.06-.12l-2.38-6.42c-.07-.2-.15-.22-.21,0l-2.18,6.42q0,.12.06.12Z" transform="translate(-223.7 -367.17)"/><path class="cls-1" d="M381.82,387.6c-.27-.13-.29-.25-.29-.67a16.67,16.67,0,0,1,.09-2c0-.2.06-.29.12-.29s.1.06.1.23a4.63,4.63,0,0,0,.09.89c.29,1.33,1.53,1.79,3,1.79a3,3,0,0,0,3.17-3.12c0-1.55-.54-2.36-2.51-4l-1-.79c-2-1.55-2.57-2.82-2.57-4.19,0-2.12,1.54-3.63,4.13-3.63a7.19,7.19,0,0,1,1.85.21,6.15,6.15,0,0,0,.7.1c.13,0,.15,0,.15.1s-.08.69-.08,2c0,.27-.05.37-.13.37s-.1-.08-.12-.23a2.41,2.41,0,0,0-.25-1.1c-.25-.39-.89-.95-2.53-.95a2.56,2.56,0,0,0-2.74,2.68c0,1.22.5,2.11,2.61,3.71l.69.5c2.4,1.89,2.84,3.09,2.84,4.58a4.33,4.33,0,0,1-1.68,3.39,5.06,5.06,0,0,1-3,.87,6.24,6.24,0,0,1-2.66-.56" transform="translate(-223.7 -367.17)"/><path class="cls-1" d="M400.15,381.85c0,2.3,0,3.76.08,4.63,0,.66.12,1,.79,1.1a7.34,7.34,0,0,0,.87.06c.12,0,.17,0,.17.1s-.09.13-.27.13c-.94,0-2.14-.06-2.25-.06s-1.18.06-1.76.06c-.17,0-.27,0-.27-.13s.06-.1.19-.1a3.13,3.13,0,0,0,.6-.06c.41-.08.52-.46.58-1.06.08-.87.08-2.16.08-4.67v-9c-1,0-2.26,0-3.46,0s-1.68.15-1.95.67a2.5,2.5,0,0,0-.27.6c0,.17-.11.21-.17.21s-.08-.06-.06-.21c.06-.37.33-1.58.39-1.82s.11-.36.19-.36a4.11,4.11,0,0,0,.54.15,13,13,0,0,0,2,.12h7.18a15.72,15.72,0,0,0,2-.1c.21,0,.34-.09.4-.09s.08.11.08.3c0,.41-.06,1.59-.06,1.93q0,.24-.12.24c-.09,0-.11-.08-.11-.29s0-.16,0-.27c0-.66-.37-1-1.83-1-.83-.05-2.36-.05-3.56-.07Z" transform="translate(-223.7 -367.17)"/><path class="cls-1" d="M411.25,378.2c0-3.28,0-3.88,0-4.55s-.17-1.08-.77-1.2c-.21,0-.54,0-.73-.06s-.25,0-.25-.11.09-.1.27-.1c.5,0,1.27,0,2.08.06.25,0,4.15,0,4.65,0a4.58,4.58,0,0,0,1-.1.4.4,0,0,1,.17,0c.06,0,.08.06.06.14s-.08.33-.12.73-.07.7-.09,1.3c0,.21,0,.32-.12.32s-.11-.11-.11-.3a1.88,1.88,0,0,0-.14-.83c-.17-.39-.5-.51-1.27-.58-.47,0-2.3-.06-3.3-.06-.1,0-.12.06-.12.21v6.08c0,.1,0,.12.08.12s3.2,0,3.68,0,.81-.12,1-.37.1-.19.17-.19.08.06.06.17-.1.46-.15.95-.06,1.12-.08,1.35,0,.27-.1.27-.11-.1-.11-.27a2.78,2.78,0,0,0-.08-.64c-.08-.29-.31-.52-.93-.58s-3.14-.08-3.41-.08c-.08,0-.1,0-.1.1v1.93c0,.6,0,3.49,0,4,0,.75.12,1.19.73,1.31a6.62,6.62,0,0,0,1.72.15,6.89,6.89,0,0,0,2.18-.19c.54-.19.79-.64.93-1.54,0-.18.06-.24.13-.24s.08.12.08.24a13.48,13.48,0,0,1-.25,1.85c-.12.46-.23.52-1.12.52-1.49,0-2.51,0-3.32-.08s-1.33-.05-1.95-.05c-.38,0-1.06.07-1.52.07-.2,0-.29,0-.29-.13s.09-.08.23-.1a4.12,4.12,0,0,0,.54,0c.44-.11.62-.31.66-1.89,0-.83.05-2,.05-3.86Z" transform="translate(-223.7 -367.17)"/><path class="cls-1" d="M424.94,378.18c0-3.22,0-3.8,0-4.47,0-.87-.21-1.14-.79-1.26a4.56,4.56,0,0,0-.72-.06c-.11,0-.17,0-.17-.11s.08-.1.27-.1c.69,0,1.72.06,2,.06s1.81-.06,2.41-.06a6,6,0,0,1,3.51.81,3.77,3.77,0,0,1,1.53,3,6.14,6.14,0,0,1-2.51,4.71,62,62,0,0,0,4.26,5.33,4,4,0,0,0,2.59,1.54,5,5,0,0,0,.64,0c.15,0,.21,0,.21.1s-.1.13-.37.13h-1.08a3.3,3.3,0,0,1-2.49-.71,13.77,13.77,0,0,1-2.39-2.74c-.77-1-1.82-2.53-2.28-3.13-.1-.1-.17-.17-.29-.17l-3.05,0c-.08,0-.11.06-.11.15v1.16c0,2.09,0,3.22.09,4.09,0,.66.16,1,.79,1.1a6,6,0,0,0,.81.06c.16,0,.2,0,.2.1s-.08.13-.29.13c-.93,0-2.09-.06-2.2-.06s-1.06.06-1.64.06c-.2,0-.29,0-.29-.13s0-.1.19-.1l.48,0c.45-.06.58-.48.64-1.08.08-.87.08-2.16.08-4.67Zm1.14,2c0,.08,0,.12.13.16a8.43,8.43,0,0,0,2.55.3,2.35,2.35,0,0,0,1.54-.44,4.32,4.32,0,0,0,1.45-3.42c0-2.39-1.33-4.09-3.92-4.09a6.48,6.48,0,0,0-1.56.14.27.27,0,0,0-.19.29Z" transform="translate(-223.7 -367.17)"/><path class="cls-1" d="M440.19,387.6c-.27-.13-.29-.25-.29-.67a16.67,16.67,0,0,1,.09-2c0-.2.06-.29.12-.29s.1.06.1.23a4.63,4.63,0,0,0,.09.89c.29,1.33,1.53,1.79,3,1.79a3,3,0,0,0,3.17-3.12c0-1.55-.54-2.36-2.51-4l-1-.79c-2-1.55-2.58-2.82-2.58-4.19,0-2.12,1.54-3.63,4.13-3.63a7.19,7.19,0,0,1,1.85.21,6.15,6.15,0,0,0,.7.1c.13,0,.15,0,.15.1s-.08.69-.08,2c0,.27,0,.37-.13.37s-.1-.08-.12-.23a2.41,2.41,0,0,0-.25-1.1c-.25-.39-.89-.95-2.53-.95a2.56,2.56,0,0,0-2.74,2.68c0,1.22.5,2.11,2.61,3.71l.69.5c2.4,1.89,2.84,3.09,2.84,4.58a4.33,4.33,0,0,1-1.68,3.39,5.06,5.06,0,0,1-3,.87,6.24,6.24,0,0,1-2.66-.56" transform="translate(-223.7 -367.17)"/><path class="cls-1" d="M348.86,409.25a6.87,6.87,0,0,1,7.1-6.93c4.09,0,7,2.64,7,6.58a7,7,0,0,1-7.16,7.24,6.66,6.66,0,0,1-6.95-6.89m12.85.07c0-4.28-2.95-6.48-5.88-6.48-3.48,0-5.7,2.24-5.7,6,0,4.19,2.63,6.76,6.12,6.76,2.22,0,5.46-1.37,5.46-6.26" transform="translate(-223.7 -367.17)"/><path class="cls-1" d="M367.93,407.68c0-2.78,0-3.28,0-3.84s-.14-.94-.83-1l-.44,0q-.24,0-.24-.12c0-.07.08-.11.24-.11.67,0,1.35.06,1.94.06s3.92,0,4.41,0a3.85,3.85,0,0,0,.88-.1.46.46,0,0,1,.18-.06c.07,0,.09.06.07.16a2.52,2.52,0,0,0-.11.56,11.14,11.14,0,0,0-.1,1.31c0,.19,0,.27-.11.27s-.1-.08-.12-.23a1.67,1.67,0,0,0-.23-.91c-.19-.25-.48-.33-1-.37-1,0-2.19,0-3.19,0-.1,0-.15,0-.15.14v5.06c0,.09,0,.15.11.15l2.53,0c1.2,0,1.47,0,1.7-.37.06-.11.1-.17.17-.17s.06.08.06.19-.08.41-.15.87a10.67,10.67,0,0,0-.06,1.24c0,.17,0,.25-.12.25s-.09-.1-.11-.25c0-.56-.1-1.06-1-1.14-.52,0-2.8-.06-3.07-.06-.09,0-.11,0-.11.14v1.58c0,1.72,0,3,.05,3.74s.18,1,.74,1.08a3.89,3.89,0,0,0,.62.06c.17,0,.23,0,.23.12s-.06.11-.25.11c-.87,0-1.72-.07-1.9-.07h-.15c-.33,0-1,.07-1.49.07-.17,0-.25-.05-.25-.13s0-.08.2-.1a2.42,2.42,0,0,0,.4,0c.43-.06.56-.36.58-1.23s.06-2,.06-3.65Z" transform="translate(-223.7 -367.17)"/><path class="cls-1" d="M389.86,406.25c0-3.28,0-3.84,0-4.51,0-.85-.16-1.1-.72-1.22a5.07,5.07,0,0,0-.73-.08c-.16,0-.23,0-.23-.09s.07-.12.27-.12c.81,0,1.81.06,2,.06.36,0,1.29-.06,2.27-.06,3.23,0,3.92,2.09,3.92,3.17a4.84,4.84,0,0,1-1.93,3.74,4.7,4.7,0,0,1,3.55,4.36c0,2.09-1.6,4.48-5.09,4.48-.47,0-1,0-1.57-.06s-1-.07-1.1-.07c-.44,0-1.25.07-1.81.07-.21,0-.27-.05-.27-.13s0-.1.23-.1a3.08,3.08,0,0,0,.62,0c.42-.09.46-.48.54-1.08.08-.85.08-2.45.08-4.65ZM391,409.4c0,1.83,0,3.72,0,4.4s.08,1.1.54,1.33a5,5,0,0,0,2.09.31,3.1,3.1,0,0,0,3.36-3.32,4.58,4.58,0,0,0-1.95-3.94,4.41,4.41,0,0,0-2.11-.65c-.5,0-1.5,0-1.79,0-.12,0-.14,0-.14.13Zm0-2.64c0,.11,0,.17.14.21a11.81,11.81,0,0,0,1.64.08c1,0,1.35,0,1.78-.45a3.34,3.34,0,0,0,.94-2.45c0-1.85-.91-3.47-3.07-3.47a4.45,4.45,0,0,0-1.25.13c-.14,0-.18.08-.18.23Z" transform="translate(-223.7 -367.17)"/><path class="cls-1" d="M404.89,406.25c0-3.28,0-3.89,0-4.55s-.17-1.08-.77-1.2c-.21,0-.54,0-.73-.07s-.25,0-.25-.1.09-.1.27-.1c.5,0,1.27,0,2.08.06.25,0,4.15,0,4.65,0a3.88,3.88,0,0,0,1-.11.4.4,0,0,1,.17,0c.06,0,.08.07.06.15s-.08.33-.12.72-.07.71-.09,1.31c0,.21,0,.31-.12.31s-.1-.1-.1-.29a1.86,1.86,0,0,0-.15-.83c-.17-.39-.5-.52-1.27-.58-.47,0-2.3-.06-3.3-.06-.1,0-.12.06-.12.21v6.08c0,.1,0,.12.08.12s3.2,0,3.68,0,.81-.12,1-.37.11-.19.17-.19.08.06.06.17-.1.45-.14.95-.07,1.12-.09,1.35,0,.27-.1.27-.11-.1-.11-.27a2.78,2.78,0,0,0-.08-.64c-.08-.29-.31-.52-.93-.58s-3.14-.09-3.41-.09c-.08,0-.1.05-.1.11v1.93c0,.6,0,3.48,0,4,0,.75.13,1.18.73,1.31a7.1,7.1,0,0,0,1.72.15,7.21,7.21,0,0,0,2.18-.19c.54-.19.79-.65.93-1.54,0-.18.07-.25.13-.25s.08.13.08.25a13.48,13.48,0,0,1-.25,1.85c-.12.46-.23.52-1.12.52-1.49,0-2.51,0-3.32-.09s-1.33,0-1.95,0c-.37,0-1.06.07-1.52.07-.2,0-.29-.05-.29-.13s.09-.08.23-.1a4.12,4.12,0,0,0,.54,0c.44-.11.62-.31.67-1.89,0-.83,0-2,0-3.86Z" transform="translate(-223.7 -367.17)"/><path class="cls-1" d="M419.2,406.25c0-3.28,0-3.89,0-4.55s-.16-1.08-.76-1.2c-.21,0-.54,0-.73-.07s-.25,0-.25-.1.08-.1.27-.1c.5,0,1.27,0,2.08.06.25,0,4.15,0,4.64,0a3.91,3.91,0,0,0,1-.11.38.38,0,0,1,.17,0c.06,0,.08.07.06.15s-.08.33-.13.72-.06.71-.08,1.31c0,.21,0,.31-.12.31s-.11-.1-.11-.29a1.88,1.88,0,0,0-.14-.83c-.17-.39-.5-.52-1.27-.58-.48,0-2.3-.06-3.3-.06-.1,0-.12.06-.12.21v6.08c0,.1,0,.12.08.12s3.2,0,3.67,0c.63,0,.81-.12,1-.37s.1-.19.17-.19.08.06.06.17-.11.45-.15.95-.06,1.12-.08,1.35,0,.27-.1.27-.11-.1-.11-.27a2.78,2.78,0,0,0-.08-.64c-.08-.29-.31-.52-.94-.58s-3.13-.09-3.4-.09c-.08,0-.1.05-.1.11v1.93c0,.6,0,3.48,0,4,0,.75.12,1.18.72,1.31a11.33,11.33,0,0,0,3.91,0c.54-.19.78-.65.93-1.54,0-.18.06-.25.12-.25s.09.13.09.25a15.26,15.26,0,0,1-.25,1.85c-.13.46-.23.52-1.12.52-1.5,0-2.51,0-3.32-.09s-1.33,0-1.95,0c-.38,0-1.06.07-1.52.07-.21,0-.29-.05-.29-.13s.08-.08.23-.1a4.26,4.26,0,0,0,.54,0c.43-.11.62-.31.66-1.89,0-.83,0-2,0-3.86Z" transform="translate(-223.7 -367.17)"/><path class="cls-1" d="M433.52,406.25c0-3.28,0-3.89,0-4.55s-.14-1.12-.85-1.2l-.56,0c-.19,0-.27,0-.27-.11s.08-.12.27-.12c.71,0,1.52.06,2.12.06s4.52,0,5,0a4.05,4.05,0,0,0,.93-.08.85.85,0,0,1,.21-.07c.06,0,.08,0,.08.15s-.08.35-.1.58a14.16,14.16,0,0,0-.1,1.43c0,.19-.07.33-.15.33s-.1-.06-.1-.25a1.75,1.75,0,0,0-.25-1c-.19-.27-.46-.44-1.16-.46-1.19,0-2.58-.06-3.72-.06-.1,0-.14,0-.14.17v6.1c0,.1,0,.14.1.14l2.84,0c1.5,0,1.81,0,2.06-.41.06-.11.1-.17.16-.17s.07.06.07.15-.11.47-.17,1-.08,1.18-.08,1.43,0,.29-.11.29-.12-.12-.12-.27c0-.76-.13-1.24-1.06-1.32-.62-.07-3.32-.07-3.59-.07-.08,0-.1,0-.1.13v1.91c0,2.14,0,3.65.06,4.5s.21,1.16.79,1.25a5.47,5.47,0,0,0,.74,0c.17,0,.25,0,.25.12s-.08.11-.29.11c-.95,0-1.82-.07-2-.07H434c-.35,0-1.08.07-1.64.07-.2,0-.29-.05-.29-.13s0-.08.23-.1a3.93,3.93,0,0,0,.52,0c.46-.11.56-.4.6-1.44,0-.89.06-2.36.06-4.31Z" transform="translate(-223.7 -367.17)"/><path class="cls-2" d="M263.85,401.48a19.76,19.76,0,0,1,11.5-28.71,24.1,24.1,0,0,0-15.9,40.6c0-.09,0-.18,0-.27a17.37,17.37,0,0,1,4.41-11.62" transform="translate(-223.7 -367.17)"/><path class="cls-2" d="M264.89,403.12v0h0l0,0" transform="translate(-223.7 -367.17)"/><path class="cls-2" d="M301.1,396.82a25.2,25.2,0,0,0-.33-4,24.12,24.12,0,0,0-22.15-20.05,19.76,19.76,0,0,1,11.5,28.71,17.5,17.5,0,0,1,4.41,11.62c0,.09,0,.18,0,.27a24,24,0,0,0,6.58-16.55" transform="translate(-223.7 -367.17)"/><path class="cls-2" d="M289.06,403.15h0v0Z" transform="translate(-223.7 -367.17)"/><path class="cls-2" d="M289.07,403.16a12.26,12.26,0,0,1-2.35,5.06,10.56,10.56,0,0,1,.81,2.16,10.89,10.89,0,1,1-21.09,0,10,10,0,0,1,.81-2.16,12.26,12.26,0,0,1-2.35-5.06,15.48,15.48,0,1,0,26.89,5.13,15.62,15.62,0,0,0-2.72-5.13" transform="translate(-223.7 -367.17)"/><path class="cls-2" d="M289.18,431.8a33.46,33.46,0,1,0-24.4,0H223.7v5H330.26v-5ZM277,430.65l-.9,0a30,30,0,1,1,1.81,0l-.91,0" transform="translate(-223.7 -367.17)"/></svg>