<svg id="レイヤー_1" data-name="レイヤー 1" xmlns="http://www.w3.org/2000/svg" viewBox="0 0 151.24 205.44"><defs><style>.cls-1{fill:#231815;}.cls-2{fill:#956f29;}</style></defs><title>名称未設定-7</title><path class="cls-1" d="M252.12,572c-.07,0-.11.05-.14.11l-.83,2.46a3.07,3.07,0,0,0-.19.93.45.45,0,0,0,.5.41h.12c.14,0,.18,0,.18.08s-.12.11-.25.11c-.33,0-.89,0-1,0s-.92,0-1.57,0c-.18,0-.26,0-.26-.11s.07-.08.19-.08l.33,0c.64-.08.92-.61,1.17-1.31l3.15-8.62c.17-.46.23-.54.31-.54s.14.07.31.5,2.38,6.26,3.23,8.37c.5,1.24.9,1.46,1.2,1.54a1.82,1.82,0,0,0,.54.09c.08,0,.15,0,.15.08s-.12.11-.28.11-1.22,0-2.18,0c-.26,0-.41,0-.41-.09a.1.1,0,0,1,.09-.1c.09,0,.17-.15.09-.38l-1.3-3.41a.11.11,0,0,0-.12-.09Zm2.81-.5c.07,0,.07,0,0-.09l-1.32-3.75c-.06-.21-.13-.21-.2,0l-1.23,3.75c0,.07,0,.09.05.09Z" transform="translate(-248.49 -485.5)"/><path class="cls-1" d="M266.58,576c-.18-.08-.18-.14-.18-.47,0-.64.05-1.11.06-1.31s0-.19.11-.19.1,0,.1.14a1.73,1.73,0,0,0,0,.41,1.67,1.67,0,0,0,1.81,1.25,1.55,1.55,0,0,0,1.7-1.48c0-.8-.36-1.28-1.37-2.1l-.56-.43c-1.33-1.07-1.61-1.81-1.61-2.63,0-1.27,1-2.14,2.57-2.14a4.81,4.81,0,0,1,1.13.12,2.38,2.38,0,0,0,.47.06c.1,0,.12,0,.12.09s-.05.54-.05,1.35c0,.2,0,.29-.1.29s-.08-.06-.1-.16a1.88,1.88,0,0,0-.16-.65c-.07-.12-.39-.65-1.56-.65a1.33,1.33,0,0,0-1.46,1.33c0,.65.34,1.06,1.49,1.93l.32.25c1.44,1.11,1.82,1.85,1.82,2.84a2.44,2.44,0,0,1-1.06,2,3.44,3.44,0,0,1-1.87.48,4,4,0,0,1-1.66-.3" transform="translate(-248.49 -485.5)"/><path class="cls-1" d="M280.51,576c-.18-.08-.18-.14-.18-.47,0-.64,0-1.11.06-1.31s0-.19.11-.19.09,0,.09.14a1.4,1.4,0,0,0,.05.41,1.67,1.67,0,0,0,1.8,1.25,1.56,1.56,0,0,0,1.71-1.48c0-.8-.36-1.28-1.37-2.1l-.56-.43c-1.33-1.07-1.61-1.81-1.61-2.63,0-1.27,1-2.14,2.57-2.14a4.72,4.72,0,0,1,1.12.12,2.54,2.54,0,0,0,.48.06c.09,0,.12,0,.12.09s-.06.54-.06,1.35c0,.2,0,.29-.09.29s-.09-.06-.1-.16a1.73,1.73,0,0,0-.17-.65c-.07-.12-.39-.65-1.55-.65a1.32,1.32,0,0,0-1.46,1.33c0,.65.33,1.06,1.49,1.93l.32.25c1.44,1.11,1.81,1.85,1.81,2.84a2.43,2.43,0,0,1-1,2,3.45,3.45,0,0,1-1.88.48,4,4,0,0,1-1.65-.3" transform="translate(-248.49 -485.5)"/><path class="cls-1" d="M293.6,571.65a4.69,4.69,0,0,1,4.86-4.61c2.75,0,4.85,1.64,4.85,4.43a4.72,4.72,0,0,1-4.92,4.82,4.51,4.51,0,0,1-4.79-4.64m8.4.17c0-2.79-1.72-4.35-3.62-4.35s-3.49,1.2-3.49,3.82,1.51,4.53,3.85,4.53c.93,0,3.26-.47,3.26-4" transform="translate(-248.49 -485.5)"/><path class="cls-1" d="M312.17,575a4.52,4.52,0,0,1-1.48-3.54,4.63,4.63,0,0,1,1.4-3.21,5.06,5.06,0,0,1,3.73-1.24,11.84,11.84,0,0,1,1.84.16,10.87,10.87,0,0,0,1.22.15c.11,0,.12.07.12.14s0,.23-.06.68,0,1.11,0,1.28,0,.26-.11.26-.11-.08-.11-.26a1.62,1.62,0,0,0-.55-1.21,4.12,4.12,0,0,0-2.45-.71,3.64,3.64,0,0,0-2.67.81,3.74,3.74,0,0,0-1.11,3,4.34,4.34,0,0,0,4.32,4.33,2.88,2.88,0,0,0,2.12-.57,1.89,1.89,0,0,0,.46-1c0-.14.07-.21.15-.21s.07.1.07.2a12.92,12.92,0,0,1-.28,1.54.46.46,0,0,1-.31.35,7,7,0,0,1-2.2.27,5.85,5.85,0,0,1-4.07-1.26" transform="translate(-248.49 -485.5)"/><path class="cls-1" d="M327.49,570.63c0-1.84,0-2.17,0-2.54s-.12-.59-.41-.64l-.32-.05c-.09,0-.15,0-.15-.09s.06-.1.21-.1c.43,0,1.22,0,1.26,0s.86,0,1.25,0c.14,0,.21,0,.21.1s0,.08-.15.09a1.71,1.71,0,0,1-.25,0c-.4.06-.45.27-.47.67s0,.69,0,2.53v2.08a25.08,25.08,0,0,0,.06,2.54c.05.4.11.56.47.64a3.51,3.51,0,0,0,.53.06c.12,0,.15,0,.15.09s0,.1-.19.1c-.71,0-1.52,0-1.59,0s-.86,0-1.25,0c-.12,0-.22,0-.22-.1s.06-.09.18-.09l.33,0c.24-.06.28-.34.32-.67a24.53,24.53,0,0,0,.07-2.53Z" transform="translate(-248.49 -485.5)"/><path class="cls-1" d="M339.12,572.75c-.07,0-.11,0-.14.11l-.61,1.74a3.49,3.49,0,0,0-.24,1c0,.25.16.37.46.37h.1c.12,0,.17,0,.17.09s-.11.1-.21.1c-.31,0-.95,0-1.1,0s-.75,0-1.33,0c-.16,0-.22,0-.22-.1s.05-.09.16-.09a1.37,1.37,0,0,0,.28,0c.6,0,.83-.51,1.07-1.1l2.78-7.31c.15-.41.19-.48.29-.48s.12.06.28.45,2.08,5.3,2.82,7c.45,1.1.86,1.28,1.05,1.35a1.32,1.32,0,0,0,.47.07c.1,0,.17,0,.17.09s-.06.1-.21.1-1.18,0-2.11,0c-.26,0-.35,0-.35-.09a.12.12,0,0,1,.1-.1c.06,0,.14-.1.06-.31l-1.1-2.79a.14.14,0,0,0-.11-.07Zm2.36-.48c.06,0,.06,0,0-.09l-1.09-3.07c-.07-.19-.09-.19-.16,0l-1,3.07c0,.06,0,.09,0,.09Z" transform="translate(-248.49 -485.5)"/><path class="cls-1" d="M354.22,572.71c0,1.07,0,2.06.07,2.57,0,.33.07.53.42.61a2.86,2.86,0,0,0,.54.06c.11,0,.17,0,.17.08s-.05.11-.18.11c-.71,0-1.53,0-1.59,0s-.87,0-1.23,0c-.16,0-.21,0-.21-.1s0-.09.15-.09a1.67,1.67,0,0,0,.31,0c.26,0,.3-.21.36-.68s.05-1.5.05-2.54v-5c-.46,0-1.19,0-1.75,0-.89,0-1.08.15-1.28.44a1.77,1.77,0,0,0-.2.43c-.05.1-.07.11-.13.11s-.07,0-.07-.12.2-1,.28-1.38c0-.16.08-.22.12-.22s.37.12.62.15c.48.06.87.07.88.07h4.56a6.09,6.09,0,0,0,1-.07l.26,0c.06,0,.09.07.09.12,0,.39,0,1.31,0,1.42s-.06.17-.1.17-.09-.06-.09-.17a1.16,1.16,0,0,0,0-.2c-.05-.55-.23-.69-1.64-.7l-1.36,0Z" transform="translate(-248.49 -485.5)"/><path class="cls-1" d="M365.29,570.63c0-1.84,0-2.17,0-2.54s-.12-.59-.41-.64l-.32-.05c-.09,0-.15,0-.15-.09s.06-.1.21-.1c.43,0,1.22,0,1.26,0s.86,0,1.25,0c.14,0,.21,0,.21.1s0,.08-.15.09a1.71,1.71,0,0,1-.25,0c-.4.06-.45.27-.47.67s0,.69,0,2.53v2.08a25.08,25.08,0,0,0,.06,2.54c.05.4.11.56.47.64a3.51,3.51,0,0,0,.53.06c.12,0,.15,0,.15.09s-.05.1-.19.1c-.71,0-1.52,0-1.59,0s-.86,0-1.25,0c-.12,0-.22,0-.22-.1s.06-.09.18-.09l.33,0c.24-.06.28-.34.32-.67a24.53,24.53,0,0,0,.07-2.53Z" transform="translate(-248.49 -485.5)"/><path class="cls-1" d="M374.63,571.65a4.69,4.69,0,0,1,4.86-4.61c2.75,0,4.85,1.64,4.85,4.43a4.72,4.72,0,0,1-4.92,4.82,4.51,4.51,0,0,1-4.79-4.64m8.4.17c0-2.79-1.72-4.35-3.62-4.35s-3.49,1.2-3.49,3.82,1.51,4.53,3.85,4.53c.93,0,3.26-.47,3.26-4" transform="translate(-248.49 -485.5)"/><path class="cls-1" d="M390.79,567.61c0-.43,0-.57.15-.57s.33.28.43.38,2.06,2.11,4,4.1c1.08,1.05,2.47,2.48,2.83,2.82l-.15-5.78c0-.75-.1-1-.47-1.1a3.61,3.61,0,0,0-.54-.05c-.14,0-.17-.06-.17-.12s.11-.08.25-.08c.6,0,1.18,0,1.31,0s.56,0,1.11,0c.15,0,.19,0,.19.08s0,.1-.12.12a3.12,3.12,0,0,0-.35,0c-.32.07-.42.21-.42,1l0,7c0,.7,0,.76-.12.76s-.24-.09-.92-.73c0,0-2-2-3.19-3.13l-3.18-3.3.18,5.43c0,1,.11,1.32.46,1.4a2.16,2.16,0,0,0,.56.06c.12,0,.17,0,.17.09s-.07.1-.22.1c-.75,0-1.25,0-1.35,0s-.61,0-1.21,0c-.12,0-.2,0-.2-.1s0-.09.19-.09a1.28,1.28,0,0,0,.43-.06c.31-.1.38-.47.38-1.48,0-6.63,0-4.49,0-6.8" transform="translate(-248.49 -485.5)"/><path class="cls-1" d="M273.33,504.24c.15,1.75.3,2.86,1.46,3.24a6,6,0,0,0,1.78.21c.24,0,.33.05.33.14s-.09.18-.38.18c-.76,0-3.42-.06-4.47-.18-.5,0-.61-.11-.61-.2s.08-.12.2-.18.21-.41.15-1l-1.26-17-7.88,17.16c-.53,1.08-.58,1.26-.79,1.26s-.23-.18-.58-.88c-1.37-2.8-3.33-7-3.48-7.29-.38-.85-4.14-9.17-4.58-10.19l-1.17,15.29c0,.44-.05,1.06-.05,1.49,0,.82.26,1.14.81,1.26a5.31,5.31,0,0,0,1.08.09c.18,0,.3.05.3.14s-.12.18-.38.18c-1,0-2.31-.09-2.6-.09s-1.58.09-2.28.09c-.29,0-.44-.06-.44-.18s.12-.14.29-.14a5,5,0,0,0,.85-.06c.82-.15,1-.82,1.17-2.72L252.55,486c0-.29.12-.47.23-.47s.24.15.38.44l9,19.35,8.91-19.38c.08-.2.2-.38.35-.38s.2.23.26.76Z" transform="translate(-248.49 -485.5)"/><path class="cls-1" d="M286.38,498.9c-.12,0-.18.06-.23.2l-1.9,5.7a7.79,7.79,0,0,0-.5,2.13c0,.49.35.73.82.76H285c.29,0,.35.05.35.14s-.15.18-.41.18c-.67,0-1.78-.09-2.07-.09s-1.46.09-2.75.09c-.32,0-.47-.06-.47-.18s.12-.14.38-.14a3,3,0,0,0,.7-.06c1.11-.18,1.58-.94,2.22-2.83l6.57-18.25c.32-.87.41-1,.56-1s.2.15.52,1c.38,1,5.14,13.26,7,18.13.9,2.28,1.43,2.83,2.45,3a3.73,3.73,0,0,0,.9.09c.21,0,.32,0,.32.14s-.17.18-.43.18c-.7,0-2.66,0-4.06-.09-.38,0-.56,0-.56-.15s.06-.11.21-.14.35-.38.2-.76l-3-7.79a.2.2,0,0,0-.21-.18Zm6.83-.85c.09,0,.12-.08.09-.17l-3.36-9c-.09-.29-.2-.32-.29,0l-3.07,9c0,.12,0,.17.09.17Z" transform="translate(-248.49 -485.5)"/><path class="cls-1" d="M306.23,507.63c-.38-.18-.41-.35-.41-.94,0-1.19.06-2.33.11-2.77s.09-.41.18-.41.15.09.15.32a6.93,6.93,0,0,0,.11,1.26c.41,1.87,2.16,2.51,4.26,2.51a4.25,4.25,0,0,0,4.47-4.38c0-2.19-.76-3.33-3.53-5.58l-1.4-1.11c-2.78-2.18-3.62-4-3.62-5.89,0-3,2.16-5.11,5.81-5.11a10.64,10.64,0,0,1,2.59.29,8.14,8.14,0,0,0,1,.15c.17,0,.2,0,.2.14s-.12,1-.12,2.86c0,.38,0,.53-.17.53s-.15-.12-.18-.32a3.19,3.19,0,0,0-.35-1.55c-.35-.55-1.25-1.34-3.56-1.34a3.6,3.6,0,0,0-3.85,3.76c0,1.73.7,3,3.68,5.23l1,.7c3.39,2.66,4,4.35,4,6.45a6.08,6.08,0,0,1-2.36,4.76,7.09,7.09,0,0,1-4.24,1.23,8.71,8.71,0,0,1-3.73-.79" transform="translate(-248.49 -485.5)"/><path class="cls-1" d="M332,499.54c0,3.24,0,5.29.12,6.51.05.94.17,1.43,1.11,1.55a9.6,9.6,0,0,0,1.22.09c.18,0,.24.05.24.14s-.12.18-.38.18c-1.32,0-3-.09-3.16-.09s-1.66.09-2.48.09c-.23,0-.38,0-.38-.18s.09-.14.27-.14a4,4,0,0,0,.84-.09c.58-.12.73-.64.82-1.49.12-1.23.12-3,.12-6.57V486.87c-1.46,0-3.19,0-4.88.06s-2.36.21-2.74.94a3.3,3.3,0,0,0-.38.84c-.06.24-.15.29-.24.29s-.11-.08-.08-.29c.08-.52.46-2.22.55-2.57s.15-.49.26-.49.3.14.76.2a17.16,17.16,0,0,0,2.86.18h10.1a20.75,20.75,0,0,0,2.8-.15c.3-.06.47-.12.56-.12s.12.15.12.41c0,.59-.09,2.25-.09,2.72,0,.23-.06.35-.18.35s-.14-.12-.14-.41c0-.09,0-.23,0-.38,0-.93-.53-1.43-2.57-1.49-1.17-.06-3.33-.06-5-.09Z" transform="translate(-248.49 -485.5)"/><path class="cls-1" d="M347.61,494.4c0-4.61,0-5.45,0-6.39-.05-1.14-.23-1.52-1.08-1.69-.29-.06-.75-.06-1-.09s-.35,0-.35-.14.12-.15.38-.15c.7,0,1.78,0,2.92.09.35,0,5.84,0,6.54,0a6.2,6.2,0,0,0,1.4-.15.51.51,0,0,1,.23-.06c.09,0,.12.09.09.21s-.11.46-.17,1-.09,1-.12,1.84c0,.29-.06.44-.18.44s-.14-.15-.14-.41a2.62,2.62,0,0,0-.2-1.17c-.24-.56-.71-.73-1.79-.82-.67-.06-3.24-.09-4.64-.09-.14,0-.17.09-.17.3v8.55c0,.15,0,.17.11.17.27,0,4.5,0,5.17,0,.88-.06,1.14-.18,1.37-.53.09-.18.15-.26.24-.26s.11.08.08.23-.14.64-.2,1.34-.09,1.58-.12,1.9-.05.38-.14.38-.15-.15-.15-.38a3.63,3.63,0,0,0-.12-.9c-.11-.41-.43-.73-1.31-.82s-4.41-.12-4.79-.12c-.11,0-.14.06-.14.15v2.71c0,.85,0,4.91,0,5.64.06,1.05.17,1.66,1,1.84a10.15,10.15,0,0,0,2.42.2,10,10,0,0,0,3.07-.26c.76-.27,1.11-.91,1.31-2.16,0-.27.09-.35.17-.35s.12.17.12.35a19.36,19.36,0,0,1-.35,2.59c-.17.65-.32.73-1.57.73-2.11,0-3.54,0-4.68-.11s-1.86-.06-2.74-.06c-.53,0-1.49.09-2.13.09-.29,0-.41-.06-.41-.18s.12-.11.32-.14a5.45,5.45,0,0,0,.76-.06c.61-.15.88-.44.93-2.66,0-1.17.06-2.8.06-5.43Z" transform="translate(-248.49 -485.5)"/><path class="cls-1" d="M366.88,494.38c0-4.53,0-5.35,0-6.28-.06-1.23-.29-1.61-1.11-1.78a6.12,6.12,0,0,0-1-.09c-.15,0-.24-.06-.24-.14s.12-.15.38-.15c1,0,2.43.09,2.81.09s2.54-.09,3.38-.09a8.53,8.53,0,0,1,4.94,1.14,5.33,5.33,0,0,1,2.16,4.26c0,2.31-1.06,4.47-3.54,6.63a92.64,92.64,0,0,0,6,7.5,5.7,5.7,0,0,0,3.65,2.16,6.45,6.45,0,0,0,.9.06c.21,0,.29.05.29.14s-.14.18-.52.18H383.4c-1.9,0-2.66-.29-3.5-1a19.38,19.38,0,0,1-3.36-3.85c-1.08-1.43-2.57-3.56-3.21-4.41-.15-.14-.23-.23-.41-.23l-4.29-.06c-.12,0-.15.09-.15.21v1.63c0,2.95,0,4.53.12,5.75.06.94.23,1.43,1.11,1.55a7.91,7.91,0,0,0,1.14.09c.23,0,.29.05.29.14s-.12.18-.41.18c-1.31,0-3-.09-3.09-.09s-1.49.09-2.31.09c-.29,0-.41-.06-.41-.18s.06-.14.26-.14.41,0,.68-.06c.64-.09.81-.67.9-1.52.12-1.23.12-3,.12-6.57Zm1.6,2.8c0,.11,0,.17.18.23a12.28,12.28,0,0,0,3.59.41,3.27,3.27,0,0,0,2.16-.61,6,6,0,0,0,2-4.82c0-3.36-1.87-5.75-5.51-5.75a9.14,9.14,0,0,0-2.19.2.37.37,0,0,0-.27.41Z" transform="translate(-248.49 -485.5)"/><path class="cls-1" d="M388.33,507.63c-.38-.18-.41-.35-.41-.94a26.62,26.62,0,0,1,.12-2.77c0-.29.09-.41.17-.41s.15.09.15.32a6.17,6.17,0,0,0,.12,1.26c.41,1.87,2.16,2.51,4.26,2.51a4.24,4.24,0,0,0,4.46-4.38c0-2.19-.75-3.33-3.53-5.58l-1.4-1.11c-2.77-2.18-3.62-4-3.62-5.89,0-3,2.16-5.11,5.81-5.11a10.73,10.73,0,0,1,2.6.29,8,8,0,0,0,1,.15c.18,0,.21,0,.21.14s-.12,1-.12,2.86c0,.38-.06.53-.18.53s-.14-.12-.17-.32a3.31,3.31,0,0,0-.35-1.55c-.35-.55-1.26-1.34-3.56-1.34a3.61,3.61,0,0,0-3.86,3.76c0,1.73.71,3,3.68,5.23l1,.7c3.38,2.66,4,4.35,4,6.45a6.08,6.08,0,0,1-2.36,4.76,7.08,7.08,0,0,1-4.23,1.23,8.72,8.72,0,0,1-3.74-.79" transform="translate(-248.49 -485.5)"/><path class="cls-1" d="M259.86,538.09a9.65,9.65,0,0,1,10-9.75c5.76,0,9.87,3.71,9.87,9.25s-4,10.19-10.07,10.19c-6.71,0-9.78-5.11-9.78-9.69m18.07.09c0-6-4.14-9.11-8.26-9.11-4.9,0-8,3.15-8,8.41,0,5.89,3.71,9.51,8.61,9.51,3.13,0,7.68-1.92,7.68-8.81" transform="translate(-248.49 -485.5)"/><path class="cls-1" d="M286.69,535.87c0-3.91,0-4.61,0-5.4s-.21-1.31-1.17-1.4c-.26,0-.44,0-.61-.06s-.35-.06-.35-.17.11-.15.35-.15c.93,0,1.89.09,2.71.09s5.52,0,6.22,0a4.94,4.94,0,0,0,1.22-.15.64.64,0,0,1,.27-.08c.08,0,.11.08.08.23a5.23,5.23,0,0,0-.14.79,14.47,14.47,0,0,0-.15,1.84c0,.26-.06.38-.14.38s-.15-.12-.18-.33a2.44,2.44,0,0,0-.32-1.28c-.26-.35-.67-.47-1.43-.53-1.46,0-3.09,0-4.5,0-.14,0-.2,0-.2.2v7.12c0,.12,0,.21.15.21.67,0,2.33,0,3.56,0,1.69,0,2.07-.06,2.39-.53.09-.14.15-.23.24-.23s.08.12.08.26-.11.59-.2,1.23a14.17,14.17,0,0,0-.09,1.75c0,.23-.06.35-.17.35s-.12-.15-.15-.35c0-.79-.15-1.49-1.34-1.61-.73-.05-3.94-.08-4.32-.08-.12,0-.15,0-.15.2v2.22c0,2.42,0,4.2.06,5.25.06,1.2.26,1.43,1.05,1.52a5,5,0,0,0,.88.09c.23,0,.32.06.32.17s-.09.15-.35.15c-1.23,0-2.43-.09-2.69-.09h-.2c-.47,0-1.4.09-2.11.09-.23,0-.35-.06-.35-.17s.06-.12.3-.15a3,3,0,0,0,.55,0c.61-.09.79-.5.82-1.72s.09-2.8.09-5.14Z" transform="translate(-248.49 -485.5)"/><path class="cls-1" d="M317.54,533.86c0-4.61,0-5.4,0-6.34-.06-1.19-.24-1.54-1-1.72a6.8,6.8,0,0,0-1-.12c-.23,0-.32,0-.32-.11s.09-.18.38-.18c1.14,0,2.54.09,2.81.09.49,0,1.8-.09,3.18-.09,4.55,0,5.51,3,5.51,4.47a6.77,6.77,0,0,1-2.71,5.25c2,.59,5,2.54,5,6.13,0,3-2.25,6.31-7.15,6.31-.67,0-1.43-.06-2.22-.09s-1.43-.09-1.55-.09c-.61,0-1.75.09-2.54.09-.29,0-.38-.06-.38-.17s.06-.15.33-.15a4.1,4.1,0,0,0,.87-.06c.59-.12.64-.67.76-1.52.12-1.19.12-3.44.12-6.54Zm1.6,4.43c0,2.57,0,5.23,0,6.19.06,1.17.12,1.55.76,1.87a7.14,7.14,0,0,0,3,.44c2.1,0,4.73-1,4.73-4.67a6.49,6.49,0,0,0-2.75-5.55,6.17,6.17,0,0,0-3-.9,24.11,24.11,0,0,0-2.51,0c-.18,0-.21.06-.21.17Zm0-3.7a.26.26,0,0,0,.21.29,15.38,15.38,0,0,0,2.3.12c1.46,0,1.9,0,2.51-.65a4.74,4.74,0,0,0,1.32-3.44c0-2.6-1.29-4.88-4.32-4.88a6.36,6.36,0,0,0-1.75.18c-.21.06-.27.12-.27.32Z" transform="translate(-248.49 -485.5)"/><path class="cls-1" d="M338.67,533.86c0-4.61,0-5.46,0-6.4-.06-1.13-.23-1.51-1.08-1.69-.29-.06-.76-.06-1-.09s-.35,0-.35-.14.11-.15.38-.15c.7,0,1.78,0,2.92.09.35,0,5.83,0,6.53,0a6.23,6.23,0,0,0,1.41-.15.54.54,0,0,1,.23,0c.09,0,.12.08.09.2s-.12.47-.18,1-.09,1-.12,1.84c0,.29-.05.44-.17.44s-.15-.15-.15-.41a2.65,2.65,0,0,0-.2-1.17c-.23-.55-.7-.73-1.78-.81-.67-.06-3.24-.09-4.64-.09-.15,0-.18.09-.18.29v8.55c0,.15,0,.18.12.18.26,0,4.49,0,5.17,0,.87-.06,1.13-.18,1.37-.53.08-.17.14-.26.23-.26s.12.09.09.23-.15.65-.21,1.35-.08,1.57-.11,1.89-.06.38-.15.38-.14-.14-.14-.38a3.7,3.7,0,0,0-.12-.9c-.12-.41-.44-.73-1.31-.82s-4.41-.11-4.79-.11c-.12,0-.15,0-.15.14V539c0,.84,0,4.9,0,5.63.06,1,.18,1.66,1,1.84a10.31,10.31,0,0,0,2.43.2,10,10,0,0,0,3.06-.26c.76-.26,1.11-.9,1.31-2.16,0-.26.09-.35.18-.35s.12.18.12.35a21.29,21.29,0,0,1-.35,2.6c-.18.64-.32.73-1.58.73-2.1,0-3.53-.06-4.67-.12s-1.87-.06-2.74-.06c-.53,0-1.49.09-2.14.09-.29,0-.4-.06-.4-.17s.11-.12.32-.15a5.72,5.72,0,0,0,.76-.06c.61-.15.87-.44.93-2.66,0-1.16.06-2.8.06-5.42Z" transform="translate(-248.49 -485.5)"/><path class="cls-1" d="M358.81,533.86c0-4.61,0-5.46,0-6.4-.06-1.13-.23-1.51-1.08-1.69-.29-.06-.76-.06-1-.09s-.35,0-.35-.14.11-.15.38-.15c.7,0,1.78,0,2.91.09.36,0,5.84,0,6.54,0a6.23,6.23,0,0,0,1.41-.15.54.54,0,0,1,.23,0c.09,0,.12.08.09.2s-.12.47-.18,1-.09,1-.12,1.84c0,.29,0,.44-.17.44s-.15-.15-.15-.41a2.65,2.65,0,0,0-.2-1.17c-.23-.55-.7-.73-1.78-.81-.67-.06-3.24-.09-4.64-.09-.15,0-.18.09-.18.29v8.55c0,.15,0,.18.12.18.26,0,4.49,0,5.17,0,.87-.06,1.13-.18,1.37-.53.08-.17.14-.26.23-.26s.12.09.09.23-.15.65-.21,1.35-.08,1.57-.11,1.89-.06.38-.15.38-.14-.14-.14-.38a3.7,3.7,0,0,0-.12-.9c-.12-.41-.44-.73-1.31-.82s-4.41-.11-4.79-.11c-.12,0-.15,0-.15.14V539c0,.84,0,4.9,0,5.63.06,1,.18,1.66,1,1.84a10.31,10.31,0,0,0,2.43.2,10,10,0,0,0,3.06-.26c.76-.26,1.11-.9,1.31-2.16,0-.26.09-.35.18-.35s.12.18.12.35a21.29,21.29,0,0,1-.35,2.6c-.18.64-.32.73-1.58.73-2.1,0-3.53-.06-4.67-.12s-1.87-.06-2.74-.06c-.53,0-1.49.09-2.14.09-.29,0-.4-.06-.4-.17s.11-.12.32-.15a5.72,5.72,0,0,0,.76-.06c.61-.15.87-.44.93-2.66,0-1.16.06-2.8.06-5.42Z" transform="translate(-248.49 -485.5)"/><path class="cls-1" d="M379,533.86c0-4.61,0-5.46,0-6.4-.06-1.13-.21-1.57-1.2-1.69-.23,0-.44,0-.79-.06s-.38-.06-.38-.14.12-.18.38-.18c1,0,2.13.09,3,.09s6.36,0,7,0a5.44,5.44,0,0,0,1.31-.12,1.43,1.43,0,0,1,.29-.08c.09,0,.12,0,.12.2s-.12.5-.15.82c-.11.84-.11,1.4-.14,2,0,.27-.09.47-.21.47s-.14-.09-.14-.35a2.53,2.53,0,0,0-.35-1.37c-.27-.38-.65-.62-1.64-.65-1.66,0-3.62-.08-5.22-.08-.15,0-.21,0-.21.23v8.58c0,.15,0,.21.15.21.61,0,2.57,0,4,0,2.1,0,2.54-.06,2.89-.59.08-.14.14-.23.23-.23s.09.09.09.2c0,.27-.15.68-.24,1.38s-.11,1.66-.11,2-.06.41-.15.41-.17-.18-.17-.38c0-1.08-.18-1.75-1.49-1.87-.88-.09-4.67-.09-5.05-.09-.12,0-.15,0-.15.18V539c0,3,0,5.13.09,6.33s.29,1.63,1.11,1.75a7.31,7.31,0,0,0,1.05.06c.23,0,.35.06.35.17s-.12.15-.41.15c-1.34,0-2.57-.09-2.86-.09h-.26c-.5,0-1.52.09-2.31.09-.29,0-.41-.06-.41-.17s.06-.12.32-.15a5,5,0,0,0,.73-.06c.65-.15.79-.55.85-2,.06-1.26.09-3.33.09-6.07Z" transform="translate(-248.49 -485.5)"/><path class="cls-2" d="M305.63,641.22a27.8,27.8,0,0,1,16.19-40.39,33.91,33.91,0,0,0-22.38,57.11c0-.12,0-.25,0-.37a24.55,24.55,0,0,1,6.2-16.35" transform="translate(-248.49 -485.5)"/><path class="cls-2" d="M307.1,643.53s0,0,0,.05h0l0,0" transform="translate(-248.49 -485.5)"/><path class="cls-2" d="M358,634.67a34,34,0,0,0-31.63-33.84,27.81,27.81,0,0,1,16.18,40.39,24.55,24.55,0,0,1,6.2,16.35c0,.12,0,.25,0,.37A33.8,33.8,0,0,0,358,634.67" transform="translate(-248.49 -485.5)"/><path class="cls-2" d="M341.09,643.57h0v-.05l0,0" transform="translate(-248.49 -485.5)"/><path class="cls-2" d="M341.11,643.58a17.28,17.28,0,0,1-3.3,7.11,15.3,15.3,0,1,1-28.53,3,14.62,14.62,0,0,1,1.14-3,17.28,17.28,0,0,1-3.3-7.11,21.67,21.67,0,0,0-3.83,7.21,21.79,21.79,0,1,0,42.6,6.41,21.73,21.73,0,0,0-4.78-13.62" transform="translate(-248.49 -485.5)"/><path class="cls-2" d="M341.27,683.86a47.08,47.08,0,1,0-34.32,0H249.17v7.08H399.06v-7.08Zm-17.16-1.62-1.27,0a42.14,42.14,0,1,1,2.54,0c-.42,0-.84,0-1.27,0" transform="translate(-248.49 -485.5)"/></svg>